<?xml version="1.0" encoding="UTF-8"?>
<svg id="Ebene_1" xmlns="http://www.w3.org/2000/svg" version="1.1" xmlns:xlink="http://www.w3.org/1999/xlink" viewBox="0 0 218.91 218.8">
  <!-- Generator: Adobe Illustrator 30.1.0, SVG Export Plug-In . SVG Version: 2.1.1 Build 136)  -->
  <defs>
    <style>
      .st0, .st1 {
        fill: none;
      }

      .st2 {
        clip-path: url(#clippath-1);
      }

      .st3 {
        clip-path: url(#clippath-3);
      }

      .st4 {
        clip-path: url(#clippath-2);
      }

      .st1 {
        stroke: #e6223d;
        stroke-miterlimit: 10;
        stroke-width: .38px;
      }

      .st5 {
        clip-path: url(#clippath);
      }
    </style>
    <clipPath id="clippath">
      <rect class="st0" width="218.91" height="218.8"/>
    </clipPath>
    <clipPath id="clippath-1">
      <rect class="st0" width="218.91" height="218.8"/>
    </clipPath>
    <clipPath id="clippath-2">
      <rect class="st0" width="218.91" height="218.8"/>
    </clipPath>
    <clipPath id="clippath-3">
      <rect class="st0" width="218.91" height="218.8"/>
    </clipPath>
  </defs>
  <g class="st5">
    <path class="st1" d="M27.75,27.48H.46V.19C15.53.19,27.75,12.41,27.75,27.48Z"/>
    <path class="st1" d="M.46,82.06h27.29v27.29c-15.07,0-27.29-12.22-27.29-27.29Z"/>
    <path class="st1" d="M82.32,54.77h0v27.3h-27.29c0-15.08,12.22-27.3,27.29-27.3Z"/>
    <path class="st1" d="M55.03,27.48h27.29v27.3c-15.07,0-27.29-12.22-27.29-27.3Z"/>
    <path class="st1" d="M55.03,82.06h-27.29v-27.29c15.07,0,27.29,12.22,27.29,27.29Z"/>
    <path class="st1" d="M27.75,54.77h0v-27.29h27.29c0,15.08-12.22,27.29-27.29,27.29Z"/>
    <polygon class="st1" points="27.75 27.48 27.75 54.77 .46 54.77 14.1 41.12 .46 27.48 27.75 27.48"/>
    <polygon class="st1" points="82.32 .19 82.32 27.48 55.03 27.48 68.68 13.84 55.03 .19 82.32 .19"/>
    <path class="st1" d="M.46,54.77v27.29h27.29v-13.65c-7.53,0-13.64-6.11-13.64-13.65H.46Z"/>
    <path class="st1" d="M55.03,82.06h13.64c0,7.52,6.12,13.64,13.64,13.64v13.64c-15.05,0-27.29-12.24-27.29-27.27Z"/>
    <path class="st1" d="M55.03.21v13.64c-7.52,0-13.64,6.12-13.64,13.64h-13.64C27.75,12.45,39.99.21,55.03.21Z"/>
    <path class="st1" d="M55.03,102.52v-20.45h-27.29v27.27h20.46c-3.77,0-6.82-3.05-6.82-6.82s3.05-6.82,6.82-6.82,6.82,3.05,6.82,6.82ZM55.03,109.34v-6.82c0,3.76-3.05,6.82-6.82,6.82h6.82Z"/>
    <path class="st1" d="M136.96,82.06h27.29v27.29c-15.07,0-27.29-12.22-27.29-27.29Z"/>
    <path class="st1" d="M164.25,27.48h-27.29V.19c15.07,0,27.29,12.22,27.29,27.29Z"/>
    <path class="st1" d="M82.39,54.77h0v-27.29h27.29c0,15.08-12.22,27.29-27.29,27.29Z"/>
    <path class="st1" d="M109.68,82.06h-27.29v-27.29c15.07,0,27.29,12.22,27.29,27.29Z"/>
    <path class="st1" d="M109.68,27.48h27.29v27.3c-15.07,0-27.29-12.22-27.29-27.3Z"/>
    <path class="st1" d="M136.96,54.77h0v27.3h-27.29c0-15.08,12.22-27.3,27.29-27.3Z"/>
    <path class="st1" d="M164.14,27.58h0V.28h27.29c0,15.08-12.22,27.29-27.29,27.29Z"/>
    <path class="st1" d="M191.43,54.87h-27.29v-27.29c15.07,0,27.29,12.22,27.29,27.29Z"/>
    <path class="st1" d="M191.43.28h27.29v27.3c-15.07,0-27.29-12.22-27.29-27.3Z"/>
    <path class="st1" d="M218.72,27.58h0v27.3h-27.29c0-15.08,12.22-27.3,27.29-27.3Z"/>
  </g>
  <polygon class="st1" points="136.96 82.06 136.96 54.77 164.25 54.77 150.61 68.42 164.25 82.06 136.96 82.06"/>
  <polygon class="st1" points="82.39 109.35 82.39 82.06 109.68 82.06 96.03 95.7 109.68 109.35 82.39 109.35"/>
  <g class="st2">
    <path class="st1" d="M164.25,54.77v-27.29h-27.29v13.65c7.53,0,13.64,6.11,13.64,13.65h13.64Z"/>
    <path class="st1" d="M109.68,27.48h-13.64c0-7.52-6.12-13.64-13.64-13.64V.21c15.05,0,27.29,12.24,27.29,27.27Z"/>
    <path class="st1" d="M109.68,109.34v-13.64c7.52,0,13.64-6.12,13.64-13.64h13.64c0,15.05-12.24,27.29-27.27,27.29Z"/>
    <path class="st1" d="M109.68,7.02v20.45h27.29V.21h-20.46c3.77,0,6.82,3.05,6.82,6.82s-3.05,6.82-6.82,6.82-6.82-3.05-6.82-6.82ZM109.68.21v6.82c0-3.76,3.05-6.82,6.82-6.82h-6.82Z"/>
    <path class="st1" d="M55.03,191.23h27.29v27.29c-15.07,0-27.29-12.22-27.29-27.29Z"/>
    <path class="st1" d="M82.32,136.64h-27.29v-27.29c15.07,0,27.29,12.22,27.29,27.29Z"/>
    <path class="st1" d="M.46,163.93H.46v-27.29h27.29c0,15.08-12.22,27.29-27.29,27.29Z"/>
    <path class="st1" d="M164.14,218.61h0v-27.3h27.29c0,15.07-12.22,27.3-27.29,27.3Z"/>
    <path class="st1" d="M164.15,54.88h27.29v27.29c-15.08,0-27.29-12.22-27.29-27.29Z"/>
    <path class="st1" d="M27.75,191.23H.46v-27.3c15.07,0,27.29,12.22,27.29,27.3Z"/>
    <path class="st1" d="M27.75,136.64h27.29v27.3c-15.07,0-27.29-12.22-27.29-27.3Z"/>
    <path class="st1" d="M191.43,191.31h27.29v27.3c-15.07,0-27.29-12.22-27.29-27.3Z"/>
    <path class="st1" d="M191.44,82.16h0v27.29h-27.29c0-15.07,12.22-27.29,27.29-27.29Z"/>
    <path class="st1" d="M55.03,163.93h0v27.3h-27.29c0-15.07,12.22-27.3,27.29-27.3Z"/>
  </g>
  <polygon class="st1" points="55.03 191.23 55.03 163.93 82.32 163.93 68.68 177.58 82.32 191.23 55.03 191.23"/>
  <g class="st4">
    <polygon class="st1" points=".46 218.51 .46 191.22 27.75 191.22 14.1 204.86 27.75 218.51 .46 218.51"/>
    <path class="st1" d="M82.32,163.93v-27.29h-27.29v13.65c7.53,0,13.64,6.11,13.64,13.65h13.64Z"/>
    <path class="st1" d="M27.75,136.64h-13.64c0-7.52-6.12-13.64-13.64-13.64v-13.64c15.05,0,27.29,12.24,27.29,27.27Z"/>
    <path class="st1" d="M191.43,191.31h-13.64c0-7.52-6.12-13.64-13.64-13.64v-13.64c15.05,0,27.29,12.24,27.29,27.27Z"/>
    <path class="st1" d="M191.44,82.16v-13.64c7.52,0,13.64-6.12,13.64-13.64h13.64c0,15.05-12.24,27.29-27.27,27.29Z"/>
    <path class="st1" d="M27.75,218.5v-13.64c7.52,0,13.64-6.12,13.64-13.64h13.64c0,15.05-12.24,27.29-27.27,27.29Z"/>
    <path class="st1" d="M27.75,116.18v20.45h27.29v-27.27h-20.46c3.77,0,6.82,3.05,6.82,6.82s-3.05,6.82-6.82,6.82-6.82-3.05-6.82-6.82ZM27.75,109.37v6.82c0-3.76,3.05-6.82,6.82-6.82h-6.82Z"/>
    <path class="st1" d="M191.43,170.86v20.45h27.29v-27.27h-20.46c3.77,0,6.82,3.05,6.82,6.82s-3.05,6.82-6.82,6.82-6.82-3.05-6.82-6.82ZM191.43,164.04v6.82c0-3.76,3.05-6.82,6.82-6.82h-6.82Z"/>
    <path class="st1" d="M211.89,82.16h-20.45v27.29h27.27v-20.46c0,3.77-3.05,6.82-6.82,6.82s-6.82-3.05-6.82-6.82,3.05-6.82,6.82-6.82ZM218.71,82.16h-6.82c3.76,0,6.82,3.05,6.82,6.82v-6.82Z"/>
    <path class="st1" d="M109.57,136.64h-27.29v-27.29c15.07,0,27.29,12.22,27.29,27.29Z"/>
    <path class="st1" d="M82.28,191.23h27.29v27.29c-15.07,0-27.29-12.22-27.29-27.29Z"/>
    <path class="st1" d="M164.14,163.93h0v27.3h-27.29c0-15.07,12.22-27.3,27.29-27.3Z"/>
    <path class="st1" d="M136.86,136.64h27.29v27.3c-15.07,0-27.29-12.22-27.29-27.3Z"/>
    <path class="st1" d="M136.86,191.23h-27.29v-27.3c15.07,0,27.29,12.22,27.29,27.3Z"/>
    <path class="st1" d="M109.57,163.93h0v-27.29h27.29c0,15.08-12.22,27.29-27.29,27.29Z"/>
  </g>
  <polygon class="st1" points="109.57 136.64 109.57 163.93 82.28 163.93 95.93 150.28 82.28 136.64 109.57 136.64"/>
  <polygon class="st1" points="164.14 109.35 164.14 136.65 136.86 136.65 150.5 123 136.86 109.35 164.14 109.35"/>
  <g class="st3">
    <path class="st1" d="M82.28,163.93v27.29h27.29v-13.65c-7.53,0-13.64-6.11-13.64-13.65h-13.64Z"/>
    <path class="st1" d="M136.86,191.23h13.64c0,7.52,6.12,13.64,13.64,13.64v13.64c-15.05,0-27.29-12.23-27.29-27.27Z"/>
    <path class="st1" d="M136.85,109.37v13.64c-7.52,0-13.64,6.12-13.64,13.64h-13.64c0-15.05,12.24-27.29,27.27-27.29Z"/>
    <path class="st1" d="M136.86,211.68v-20.45h-27.29v27.27h20.46c-3.77,0-6.82-3.05-6.82-6.82s3.05-6.82,6.82-6.82,6.82,3.05,6.82,6.82ZM136.86,218.5v-6.82c0,3.76-3.05,6.82-6.82,6.82h6.82Z"/>
  </g>
</svg>