<?xml version="1.0" encoding="UTF-8"?>
<svg id="Ebene_1" xmlns="http://www.w3.org/2000/svg" version="1.1" viewBox="0 0 120.22 196.58">
  <!-- Generator: Adobe Illustrator 30.1.0, SVG Export Plug-In . SVG Version: 2.1.1 Build 136)  -->
  <defs>
    <style>
      .st0 {
        fill: #1d1d1b;
      }
    </style>
  </defs>
  <polygon class="st0" points="120.22 36.29 120.22 0 60.11 30.06 0 0 0 36.29 60.11 66.34 120.22 36.29"/>
  <path class="st0" d="M100.18,156.5s-.02,0-.03,0H20.06s-.02,0-.03,0c-11.07,0-20.04,8.97-20.04,20.04s8.97,20.04,20.04,20.04c0,0,0,0,0,0h0s80.15,0,80.15,0h0c11.07,0,20.04-8.97,20.04-20.04s-8.97-20.04-20.04-20.04Z"/>
  <path class="st0" d="M120.22,86.38h-30.05s-60.11,0-60.11,0h0s-30.05,0-30.05,0v20.04h0c0,11.07,8.97,20.04,20.04,20.04h0s80.14,0,80.14,0h0s0,0,0,0c11.07,0,20.04-8.97,20.04-20.04h0s0,0,0,0v-20.04Z"/>
</svg>